<svg xmlns="http://www.w3.org/2000/svg" width="110" height="110" viewBox="0 0 110 110" fill="none">
  <g clip-path="url(#clip0_545_402)">
    <circle cx="54.6474" cy="54.2949" r="37.0192" fill="white"/>
    <path d="M110 54.6475C110 85.0231 85.3757 109.647 55 109.647C24.6243 109.647 0 85.0231 0 54.6475C0 24.2718 24.6243 -0.352539 55 -0.352539C85.3757 -0.352539 110 24.2718 110 54.6475ZM19.6644 54.6475C19.6644 74.1628 35.4847 89.9831 55 89.9831C74.5153 89.9831 90.3356 74.1628 90.3356 54.6475C90.3356 35.1321 74.5153 19.3118 55 19.3118C35.4847 19.3118 19.6644 35.1321 19.6644 54.6475Z" fill="#D00BC8"/>
    <path d="M81.5471 69.6127C84.0972 65.089 85.449 59.9887 85.4743 54.7957C85.4996 49.6028 84.1974 44.4896 81.6914 39.9413L81.2548 40.1818C83.7198 44.6558 85.0007 49.6853 84.9758 54.7933C84.951 59.9013 83.6212 64.9182 81.1128 69.3679L81.5471 69.6127Z" fill="#D00BC8"/>
    <path d="M28.3796 39.3935C25.868 43.9387 24.5596 49.0504 24.5785 54.2433C24.5974 59.4363 25.943 64.5382 28.4875 69.0651L28.9221 68.8208C26.4191 64.368 25.0956 59.3495 25.077 54.2415C25.0584 49.1335 26.3454 44.1055 28.8159 39.6346L28.3796 39.3935Z" fill="#D00BC8"/>
    <rect width="11.0104" height="11.0104" transform="matrix(0.866025 0.5 -0.866025 0.5 59.7593 37.7244)" fill="#D00BC8"/>
    <rect width="11.0185" height="11.0104" transform="matrix(0.866025 -0.5 4.03445e-08 1 59.7664 48.8613)" fill="#D00BC8"/>
    <rect width="11.0185" height="11.0104" transform="matrix(0 -1 0.866026 0.5 40.1929 60.2427)" fill="#D00BC8"/>
    <rect width="11.0104" height="11.0104" transform="matrix(0.866025 -0.5 4.03445e-08 1 59.7664 60.6016)" fill="#D00BC8"/>
    <rect width="11.0104" height="11.0104" transform="matrix(0 -1 0.866026 0.5 50.2239 66.1067)" fill="#D00BC8"/>
    <rect width="11.0104" height="11.0104" transform="matrix(0.866157 0.499772 -0.865894 0.500228 49.7261 43.5967)" fill="#D00BC8"/>
  </g>
  <defs>
    <clipPath id="clip0_545_402">
      <rect width="110" height="110" fill="white"/>
    </clipPath>
  </defs>
</svg>