<svg xmlns="http://www.w3.org/2000/svg" width="80" height="80" viewBox="0 0 80 80" fill="none">
  <g clip-path="url(#clip0_438_278)">
    <circle cx="39.7436" cy="39.487" r="26.9231" fill="white"/>
    <path d="M80 39.7437C80 61.835 62.0914 79.7437 40 79.7437C17.9086 79.7437 0 61.835 0 39.7437C0 17.6523 17.9086 -0.256348 40 -0.256348C62.0914 -0.256348 80 17.6523 80 39.7437ZM14.3014 39.7437C14.3014 53.9366 25.807 65.4423 40 65.4423C54.193 65.4423 65.6986 53.9366 65.6986 39.7437C65.6986 25.5507 54.193 14.045 40 14.045C25.807 14.045 14.3014 25.5507 14.3014 39.7437Z" fill="#D00BC8"/>
    <path d="M59.307 50.6272C61.1616 47.3373 62.1448 43.6279 62.1631 39.8513C62.1815 36.0746 61.2345 32.3559 59.412 29.048L59.0944 29.223C60.8872 32.4767 61.8187 36.1346 61.8006 39.8495C61.7825 43.5644 60.8155 47.213 58.9912 50.4492L59.307 50.6272Z" fill="#D00BC8"/>
    <path d="M20.6397 28.6501C18.8131 31.9557 17.8615 35.6733 17.8752 39.45C17.889 43.2266 18.8676 46.9372 20.7182 50.2294L21.0342 50.0518C19.2139 46.8134 18.2513 43.1635 18.2378 39.4486C18.2243 35.7337 19.1603 32.077 20.957 28.8254L20.6397 28.6501Z" fill="#D00BC8"/>
    <rect width="8.00754" height="8.00754" transform="matrix(0.866025 0.5 -0.866025 0.5 43.4612 27.436)" fill="#D00BC8"/>
    <rect width="8.01347" height="8.00754" transform="matrix(0.866025 -0.5 4.03445e-08 1 43.4663 35.5356)" fill="#D00BC8"/>
    <rect width="8.01347" height="8.00754" transform="matrix(0 -1 0.866026 0.5 29.231 43.813)" fill="#D00BC8"/>
    <rect width="8.00754" height="8.00754" transform="matrix(0.866025 -0.5 4.03445e-08 1 43.4663 44.0742)" fill="#D00BC8"/>
    <rect width="8.00754" height="8.00754" transform="matrix(0 -1 0.866026 0.5 36.5264 48.0776)" fill="#D00BC8"/>
    <rect width="8.00754" height="8.00754" transform="matrix(0.866157 0.499772 -0.865894 0.500228 36.1643 31.7065)" fill="#D00BC8"/>
  </g>
  <defs>
    <clipPath id="clip0_438_278">
      <rect width="80" height="80" fill="white"/>
    </clipPath>
  </defs>
</svg>