<svg xmlns="http://www.w3.org/2000/svg" width="197" height="197" viewBox="0 0 197 197" fill="none">
  <g clip-path="url(#clip0_74_686)">
    <circle cx="97.8686" cy="97.2365" r="66.2981" fill="white"/>
    <path d="M197 97.8682C197 152.268 152.9 196.368 98.5 196.368C44.1 196.368 0 152.268 0 97.8682C0 43.4681 44.1 -0.631836 98.5 -0.631836C152.9 -0.631836 197 43.4681 197 97.8682ZM35.2171 97.8682C35.2171 132.818 63.5498 161.151 98.5 161.151C133.45 161.151 161.783 132.818 161.783 97.8682C161.783 62.918 133.45 34.5853 98.5 34.5853C63.5498 34.5853 35.2171 62.918 35.2171 97.8682Z" fill="#D00BC8"/>
    <path d="M146.043 124.669C150.61 116.568 153.031 107.434 153.077 98.1336C153.122 88.8335 150.79 79.6762 146.302 71.5306L145.52 71.9614C149.935 79.9738 152.228 88.9813 152.184 98.1292C152.139 107.277 149.758 116.262 145.266 124.231L146.043 124.669Z" fill="#D00BC8"/>
    <path d="M50.8251 70.5497C46.3271 78.6898 43.9838 87.8443 44.0177 97.1444C44.0515 106.444 46.4613 115.582 51.0184 123.689L51.7967 123.251C47.3141 115.277 44.9437 106.289 44.9104 97.1411C44.8772 87.9931 47.1821 78.9884 51.6065 70.9815L50.8251 70.5497Z" fill="#D00BC8"/>
    <rect width="19.7186" height="19.7186" transform="matrix(0.866025 0.5 -0.866025 0.5 107.023 67.5605)" fill="#D00BC8"/>
    <rect width="19.7332" height="19.7186" transform="matrix(0.866025 -0.5 4.03445e-08 1 107.036 87.5059)" fill="#D00BC8"/>
    <rect width="19.7332" height="19.7186" transform="matrix(0 -1 0.866026 0.5 71.9817 107.889)" fill="#D00BC8"/>
    <rect width="19.7186" height="19.7186" transform="matrix(0.866025 -0.5 4.03445e-08 1 107.036 108.531)" fill="#D00BC8"/>
    <rect width="19.7186" height="19.7186" transform="matrix(0 -1 0.866026 0.5 89.9463 118.391)" fill="#D00BC8"/>
    <rect width="19.7186" height="19.7186" transform="matrix(0.866157 0.499772 -0.865894 0.500228 89.0547 78.0771)" fill="#D00BC8"/>
  </g>
  <defs>
    <clipPath id="clip0_74_686">
      <rect width="197" height="197" fill="white"/>
    </clipPath>
  </defs>
</svg>