<svg width="21" height="25" viewBox="0 0 21 25" fill="none" xmlns="http://www.w3.org/2000/svg">
<path d="M10.5 0L10.8413 3.37415C11.2193 7.11126 11.4084 8.97981 12.6013 10.2234C13.7942 11.467 15.6533 11.7335 19.3714 12.2665L21 12.5L19.3714 12.7335C15.6533 13.2665 13.7942 13.533 12.6013 14.7766C11.4084 16.0202 11.2193 17.8887 10.8413 21.6259L10.5 25L10.1587 21.6258C9.78066 17.8887 9.59164 16.0202 8.39872 14.7766C7.2058 13.533 5.34672 13.2665 1.62856 12.7335L0 12.5L1.62856 12.2665C5.34672 11.7335 7.2058 11.467 8.39872 10.2234C9.59164 8.97981 9.78066 7.11126 10.1587 3.37415L10.5 0Z" fill="#58E9F2"/>
</svg>
