<svg width="20" height="24" viewBox="0 0 20 24" fill="none" xmlns="http://www.w3.org/2000/svg">
<g id="noun-search-1221177 1">
<path id="Vector (Stroke)" fill-rule="evenodd" clip-rule="evenodd" d="M8.62069 4.17241C5.05941 4.17241 2.17241 7.05941 2.17241 10.6207C2.17241 14.182 5.05941 17.069 8.62069 17.069C12.182 17.069 15.069 14.182 15.069 10.6207C15.069 7.05941 12.182 4.17241 8.62069 4.17241ZM1 10.6207C1 6.4119 4.4119 3 8.62069 3C12.8295 3 16.2414 6.4119 16.2414 10.6207C16.2414 12.5141 15.5509 14.2462 14.408 15.579L17.8283 18.9993C18.0572 19.2282 18.0572 19.5994 17.8283 19.8283C17.5994 20.0572 17.2282 20.0572 16.9993 19.8283L13.579 16.408C12.2462 17.5509 10.5141 18.2414 8.62069 18.2414C4.4119 18.2414 1 14.8295 1 10.6207Z" fill="#EDEDED"/>
</g>
</svg>
