<svg width="32" height="32" viewBox="0 0 32 32" fill="none" xmlns="http://www.w3.org/2000/svg">
<g id="icons8-telegram">
<path id="Vector" d="M16 1.28C24.1299 1.28 30.72 7.87008 30.72 16C30.72 24.1299 24.1299 30.72 16 30.72C7.87011 30.72 1.28003 24.1299 1.28003 16C1.28003 7.87008 7.87011 1.28 16 1.28ZM21.0778 22C21.3485 21.1693 22.617 12.8902 22.7738 11.2589C22.8211 10.7648 22.665 10.4365 22.3591 10.2899C21.9891 10.112 21.4413 10.201 20.8058 10.4301C19.9341 10.7443 8.79043 15.4758 8.14659 15.7498C7.53603 16.009 6.95875 16.2918 6.95875 16.7014C6.95875 16.9894 7.12963 17.1514 7.60067 17.3197C8.09091 17.4944 9.32547 17.8688 10.0544 18.0698C10.7565 18.2637 11.5559 18.0954 12.0039 17.817C12.4787 17.5219 17.9591 13.8547 18.3527 13.5334C18.7456 13.2122 19.0592 13.6237 18.7379 13.9456C18.4167 14.2669 14.6547 17.9181 14.1587 18.4237C13.5565 19.0374 13.984 19.6736 14.3879 19.9283C14.8493 20.2189 18.1677 22.4448 18.6675 22.8019C19.1674 23.159 19.6743 23.321 20.1383 23.321C20.6023 23.321 20.8467 22.7098 21.0778 22Z" fill="#FFB8D7"/>
</g>
</svg>
