<svg width="32" height="32" viewBox="0 0 32 32" fill="none" xmlns="http://www.w3.org/2000/svg">
<g id="icons8-twitter-circled">
<path id="Vector" d="M16 1.28C7.88291 1.28 1.28003 7.88288 1.28003 16C1.28003 24.1171 7.88291 30.72 16 30.72C24.1171 30.72 30.72 24.1171 30.72 16C30.72 7.88288 24.1171 1.28 16 1.28ZM23.1917 13.1354C23.1981 13.2864 23.2019 13.44 23.2019 13.5942C23.2019 18.2778 19.6352 23.68 13.1143 23.68C11.1123 23.68 9.24803 23.0931 7.68003 22.087C7.95715 22.1203 8.23811 22.1363 8.52547 22.1363C10.1869 22.1363 11.7159 21.5706 12.928 20.6195C11.3767 20.5914 10.0685 19.5642 9.61603 18.1574C9.83299 18.199 10.0551 18.2214 10.2842 18.2214C10.6074 18.2214 10.921 18.1786 11.2173 18.0966C9.59683 17.7696 8.37507 16.3386 8.37507 14.6202C8.37507 14.6048 8.37507 14.5901 8.37507 14.5754C8.85315 14.841 9.39907 15.001 9.98083 15.0195C9.02851 14.3827 8.40387 13.2986 8.40387 12.0685C8.40387 11.4189 8.57795 10.8102 8.88323 10.2854C10.6323 12.4301 13.2448 13.8413 16.1907 13.9898C16.1299 13.7299 16.0979 13.4598 16.0979 13.1821C16.0979 11.2243 17.6852 9.63712 19.6435 9.63712C20.6631 9.63712 21.584 10.0672 22.2304 10.7565C23.0375 10.5978 23.7971 10.3027 24.4819 9.89696C24.2176 10.7238 23.6551 11.4189 22.9223 11.8579C23.6404 11.7709 24.3226 11.5814 24.9594 11.2992C24.4845 12.0102 23.8835 12.6355 23.1917 13.1354Z" fill="#FFB8D7"/>
</g>
</svg>
