<svg width="32" height="32" viewBox="0 0 32 32" fill="none" xmlns="http://www.w3.org/2000/svg">
<g id="vk-circled">
<path id="Vector" d="M16 1.28C7.88355 1.28 1.28003 7.88352 1.28003 16C1.28003 24.1165 7.88355 30.72 16 30.72C24.1171 30.72 30.72 24.1165 30.72 16C30.72 7.88352 24.1171 1.28 16 1.28ZM22.3827 18.9024C23.8144 20.1734 24.112 20.6272 24.1607 20.7046C24.7539 21.6454 23.5027 21.76 23.5027 21.76H20.8659C20.8659 21.76 20.224 21.767 19.6755 21.4035C18.7815 20.8179 17.8451 19.6826 17.1872 19.8797C16.6349 20.0448 16.64 20.791 16.64 21.4291C16.64 21.6576 16.4435 21.76 16 21.76C15.5565 21.76 15.3722 21.76 15.1757 21.76C13.7312 21.76 12.1639 21.2736 10.6003 19.6397C8.38851 17.3299 6.44867 12.6771 6.44867 12.6771C6.44867 12.6771 6.33411 12.4429 6.45891 12.3002C6.60035 12.1402 6.98499 12.1606 6.98499 12.1606L9.54179 12.16C9.54179 12.16 9.78243 12.2054 9.95523 12.327C10.0979 12.4269 10.1773 12.6176 10.1773 12.6176C10.1773 12.6176 10.6067 14.0358 11.1539 14.9402C12.2227 16.7053 12.72 16.7501 13.0829 16.56C13.6128 16.2848 13.44 14.4083 13.44 14.4083C13.44 14.4083 13.4637 13.6026 13.1872 13.2435C12.9741 12.9658 12.5664 12.8179 12.3885 12.7949C12.2445 12.7763 12.4851 12.5242 12.7917 12.3802C13.2013 12.1978 13.7587 12.151 14.72 12.16C15.4682 12.167 15.6839 12.2118 15.9757 12.279C16.8583 12.4826 16.64 13.0195 16.64 14.905C16.64 15.5091 16.5568 16.3584 17.0125 16.64C17.209 16.7616 17.8823 16.9101 19.0803 14.9645C19.6493 14.0416 20.1018 12.5107 20.1018 12.5107C20.1018 12.5107 20.1952 12.3424 20.3405 12.2592C20.489 12.1741 20.4845 12.176 20.688 12.176C20.8916 12.176 22.9325 12.16 23.3805 12.16C23.8279 12.16 24.2477 12.1549 24.32 12.4173C24.4237 12.7942 23.9898 14.0858 22.8903 15.4874C21.0835 17.7875 20.8832 17.5725 22.3827 18.9024Z" fill="#FFB8D7"/>
</g>
</svg>
